<svg width="72" height="72" viewBox="0 0 72 72" fill="none" xmlns="http://www.w3.org/2000/svg">
<rect width="72" height="72" rx="11.7865" fill="#1E7BF5"/>
<path fill-rule="evenodd" clip-rule="evenodd" d="M25.688 20.9933H38.9543C40.1634 20.9955 41.1429 21.9764 41.1429 23.1861V28.311C41.1429 29.9257 42.4519 31.2347 44.0667 31.2347H49.2359C50.4469 31.2347 51.4287 32.2182 51.4287 33.4293L51.4287 46.734C51.4287 49.5597 49.1379 51.8504 46.3122 51.8504H25.688C22.8623 51.8504 20.5715 49.5597 20.5715 46.734V26.1098C20.5715 23.284 22.8623 20.9933 25.688 20.9933ZM42.9613 34.383L41.143 32.5647L34.3379 39.3699L31.3899 36.4219L29.5716 38.2402L34.3379 43.0064L42.9613 34.383Z" fill="white"/>
</svg>
