<svg width="72" height="72" viewBox="0 0 72 72" fill="none" xmlns="http://www.w3.org/2000/svg">
<rect width="72" height="72" rx="11.7865" fill="#1E7BF5"/>
<path d="M35.8669 43.2251C35.0268 43.2251 34.2069 42.998 33.4922 42.5674L25.6256 37.8273V45.9894C25.6256 48.4051 30.2129 50.3606 35.8669 50.3606C41.5228 50.3606 46.1098 48.405 46.1098 45.9894V37.8273L38.2435 42.5674C37.5288 42.998 36.707 43.2251 35.8669 43.2251Z" fill="white"/>
<path d="M50.6389 30.7009L37.1528 22.5753C36.7578 22.3385 36.3126 22.2197 35.8673 22.2197C35.4221 22.2197 34.9765 22.3385 34.584 22.5753L21.0976 30.7009C20.7375 30.9177 20.5188 31.3009 20.5188 31.7132C20.5188 32.1255 20.7375 32.5087 21.0976 32.7259L34.5839 40.8516C34.9765 41.0886 35.422 41.2073 35.8673 41.2073C36.3125 41.2073 36.7578 41.0886 37.1527 40.8516L50.6389 32.7259C50.999 32.5087 51.2177 32.1255 51.2177 31.7132C51.2177 31.3009 50.999 30.9177 50.6389 30.7009Z" fill="white"/>
<path d="M49.9504 49.2194C50.198 49.2194 50.4323 49.1108 50.5882 48.9235C50.7442 48.7363 50.805 48.4907 50.7538 48.2549L50.2367 45.8729C50.5312 45.5956 50.7163 45.2084 50.7163 44.7779C50.7163 44.3247 50.509 43.9228 50.1871 43.6435V35.3717L48.1141 36.6203V43.6435C47.7922 43.9228 47.5848 44.3247 47.5848 44.7779C47.5848 45.2085 47.77 45.5956 48.0645 45.8729L47.5473 48.2549C47.4961 48.4907 47.5569 48.7363 47.7129 48.9235C47.8688 49.1107 48.1031 49.2194 48.3507 49.2194H49.9504Z" fill="white"/>
</svg>
