<svg width="456" height="413" viewBox="0 0 456 413" fill="none" xmlns="http://www.w3.org/2000/svg">
<path d="M429.028 0.20276L63.6298 47.6633C51.7232 49.2138 42.8201 59.3456 42.8201 71.3497V255.224C42.8201 267.306 51.8402 277.487 63.8346 278.94L156.708 290.193C168.702 291.646 177.722 301.827 177.722 313.909C177.722 325.952 186.694 336.113 198.649 337.615L409.477 364.002C423.148 365.718 435.435 355.538 436.283 341.778L455.952 25.3811C456.888 10.3931 443.919 -1.72804 429.028 0.20276Z" fill="#EBF2FF"/>
<mask id="mask0_47_14" style="mask-type:alpha" maskUnits="userSpaceOnUse" x="42" y="0" width="414" height="365">
<path d="M429.028 0.20276L63.6298 47.6633C51.7232 49.2138 42.8201 59.3456 42.8201 71.3497V255.224C42.8201 267.306 51.8402 277.487 63.8346 278.94L156.708 290.193C168.702 291.646 177.722 301.827 177.722 313.909C177.722 325.952 186.694 336.113 198.649 337.615L409.477 364.002C423.148 365.718 435.435 355.538 436.283 341.778L455.952 25.3811C456.888 10.3931 443.919 -1.72804 429.028 0.20276Z" fill="#EBF2FF"/>
</mask>
<g mask="url(#mask0_47_14)">
<path d="M386.062 -25.3169L371.971 171.01H501.384L485.391 -16.8526L386.062 -25.3169Z" stroke="#9DBCFE" stroke-width="0.75" stroke-miterlimit="10"/>
<path d="M415.902 172.327L423.411 -44.1178" stroke="#9DBCFE" stroke-width="0.75" stroke-miterlimit="10"/>
<path d="M189.979 48.1412L299.098 37.6388H322.092V46.9222H299.205L183.377 56.0204" stroke="#9DBCFE" stroke-width="0.75" stroke-miterlimit="10"/>
<path d="M275.022 13.2405L274.837 39.9888L237.137 43.6066V2.27002" stroke="#9DBCFE" stroke-width="0.75" stroke-miterlimit="10"/>
<path d="M225.865 6.34619V44.6891" stroke="#9DBCFE" stroke-width="0.75" stroke-miterlimit="10"/>
<path d="M382.327 38.1068L481.637 29.7498" stroke="#9DBCFE" stroke-width="0.75" stroke-miterlimit="10"/>
<path d="M82.9371 34.4111V57.1223L134.347 52.2953V17.0046" stroke="#9DBCFE" stroke-width="0.75" stroke-miterlimit="10"/>
<path d="M448.725 313.87L20.2443 264.712" stroke="#9DBCFE" stroke-width="0.75" stroke-miterlimit="10"/>
</g>
<path d="M309.698 272.767V373.412C309.698 373.412 304.091 379.341 302.434 389.385" stroke="#1F296F" stroke-width="6" stroke-miterlimit="10"/>
<path d="M338.407 393.481C338.407 379.458 327.036 368.088 313.014 368.088H305.632C291.609 368.088 280.239 379.458 280.239 393.481" stroke="#1F296F" stroke-width="6" stroke-miterlimit="10"/>
<path d="M337.265 396.546C333.304 395.905 330.613 392.174 331.254 388.214C331.896 384.253 335.626 381.563 339.586 382.204C343.547 382.845 346.238 386.575 345.597 390.536C344.955 394.496 341.225 397.187 337.265 396.546Z" fill="#1F296F"/>
<path d="M275.855 394.532C273.018 391.695 273.018 387.095 275.855 384.258C278.692 381.421 283.292 381.421 286.129 384.258C288.966 387.095 288.966 391.695 286.129 394.532C283.292 397.369 278.692 397.369 275.855 394.532Z" fill="#1F296F"/>
<path d="M297.299 394.529C294.462 391.692 294.462 387.092 297.299 384.255C300.136 381.418 304.736 381.418 307.573 384.255C310.41 387.092 310.41 391.692 307.573 394.529C304.736 397.366 300.136 397.366 297.299 394.529Z" fill="#1F296F"/>
<path d="M306.734 367.99H313.004C314.272 367.99 315.305 366.957 315.305 365.689V356.074C315.305 354.806 314.272 353.773 313.004 353.773H306.734C305.466 353.773 304.432 354.806 304.432 356.074V365.689C304.432 366.957 305.466 367.99 306.734 367.99Z" fill="#1F296F"/>
<path d="M55.2525 302.577L131.919 312.134C139.749 313.109 145.444 320.052 144.859 327.921L142.733 356.503C142.07 365.474 133.616 371.784 124.83 369.882L54.6382 354.66C47.8219 353.188 42.9656 347.161 42.9656 340.189V313.431C42.9656 306.848 48.7288 301.758 55.2525 302.577Z" fill="#EBF2FF"/>
<path d="M4.67143 224.497V392.194H8.89385L14.3254 224.497H4.67143Z" fill="#B1E3F1"/>
<path d="M259.292 224.497V392.194H263.515L268.946 224.497H259.292Z" fill="#9DBCFE"/>
<path d="M252.974 361.866C254.095 364.665 254.271 367.747 253.481 370.653L249.034 386.947C248.186 390.048 245.377 392.194 242.169 392.194H221.067C218.297 392.194 217.02 389.453 219.048 387.571C219.965 386.723 231.969 380.472 233.305 379.975C238.307 378.064 252.974 361.866 252.974 361.866Z" fill="#25293F"/>
<path d="M149.199 372.983L143.543 363.661C140.139 358.054 134.796 353.802 128.467 352.066C124.664 351.023 121.972 351.198 122.733 352.125L153.167 402.355L163.602 392.155L149.199 372.983Z" fill="#1F296F"/>
<path d="M153.401 402.277C155.644 400.18 154.932 397.411 153.606 394.797L142.577 369.2C138.355 360.882 131.929 354.933 124.264 352.222C122.538 351.618 120.714 353.841 121.085 356.103L121.3 357.42C122.548 365.006 125.278 371.813 129.257 377.264L141.417 399.254C143.104 403.73 151.383 404.159 153.401 402.277Z" fill="#25293F"/>
<path d="M236.094 162.058L247.815 142.38C252.408 134.656 260.414 129.605 269.356 128.767L283.164 127.47L251.832 176.968C248.849 169.674 244.1 163.667 236.094 162.058Z" fill="#FF732B"/>
<path d="M255.607 171.01C255.607 171.01 250.633 157.875 238.873 157.387" stroke="white" stroke-width="0.75" stroke-miterlimit="10"/>
<path d="M185.591 116.128H189.521L192.046 119.239C191.949 120.556 192.388 121.833 194.328 122.038L192.046 119.239C192.163 117.698 192.992 116.128 192.992 116.128H189.521L185.649 111.37L194.328 109.761C196.434 109.371 198.609 109.975 200.218 111.38L209.979 119.932C212.359 122.018 214.25 124.612 215.499 127.528L232.769 167.655L236.094 162.068C244.09 163.687 248.849 169.684 251.833 176.978L240.716 194.55C235.801 202.303 224.09 200.889 221.164 192.18L199.916 128.835C195.352 127.801 192.748 124.213 192.748 124.213C191.91 124.564 188.311 125.734 185.64 124.427C183.319 123.286 183.533 118.167 182.968 115.212C183.709 115.797 184.635 116.128 185.591 116.128Z" fill="#FFBB8A"/>
<path d="M192.047 119.239C191.949 120.556 192.388 121.833 194.328 122.038L192.047 119.239Z" fill="#FFBB8A"/>
<path d="M182.656 114.919C182.754 115.017 182.861 115.114 182.968 115.202C183.709 115.797 184.636 116.129 185.591 116.129H189.521L185.65 111.37L185.055 110.638C185.055 110.638 183.427 111.067 182.754 112.16C181.964 112.833 181.827 114.1 182.656 114.919Z" fill="#FFBB8A"/>
<path d="M358.115 269.325C358.115 276.238 352.195 281.66 345.311 281.065L249.141 272.767L199.916 259.602L207.688 248.32L358.115 269.325Z" fill="#25293F"/>
<path d="M274.31 264.937L297.041 136.773C297.801 132.482 301.536 129.352 305.895 129.352H377.081C382.805 129.352 387.076 134.637 385.877 140.234L358.124 269.325L274.31 264.937Z" fill="#25293F"/>
<path d="M270.575 262.742L293.306 134.578C294.066 130.288 297.801 127.158 302.16 127.158H373.346C379.07 127.158 383.341 132.443 382.142 138.04L354.389 267.131L270.575 262.742Z" fill="#1F296F"/>
<path d="M354.38 267.131L269.698 272.767L191.442 262.109L270.575 262.742L354.38 267.131Z" fill="#25293F"/>
<path d="M299.098 232.123L203.923 235.555C191.939 235.984 184.206 248.417 189.111 259.359L232.768 356.766L249.141 351.13L222.412 262.109L288.654 272.767L299.098 232.123Z" fill="#404DA5"/>
<path d="M299.098 232.123L203.923 235.555C191.939 235.984 184.206 248.417 189.111 259.359L232.768 356.766L249.141 351.13L222.412 262.109L288.654 272.767L299.098 232.123Z" fill="#0C50AA"/>
<path d="M152.251 377.391L163.377 392.194L239.829 323.016C239.829 323.016 253.393 316.073 270.507 305.688C274.983 302.967 279.693 300.022 284.481 296.902C305.964 282.879 330.635 267.618 334.526 256.618C339.382 242.869 333.317 228.456 333.317 228.456L274.827 224.497L271.414 256.258L234.749 287.843L222.413 298.472L152.251 377.391Z" fill="#1E7BF5"/>
<path d="M262.628 306.302C262.628 307.775 262.492 309.218 262.228 310.613C264.851 309.082 267.631 307.434 270.507 305.688C274.983 302.967 279.693 300.022 284.481 296.902C305.964 282.879 330.635 267.618 334.526 256.618C339.382 242.869 333.317 228.456 333.317 228.456L274.827 224.497L271.414 256.258L240.755 282.665C252.994 283.601 262.628 293.83 262.628 306.302Z" fill="#0C50AA"/>
<path d="M311.063 124.846L266.918 128.991C266.567 129.02 266.216 129.069 265.865 129.127C257.264 130.492 251.813 139.142 253.715 147.645L251.414 157.631C250.497 161.619 251.053 165.803 252.984 169.411L262.628 187.432L259.029 231.469C258.776 234.522 260.326 237.437 262.989 238.939L267.981 241.767C271.141 243.561 274.876 244.039 278.386 243.103L333.326 228.456L322.092 195.808L327.748 141.697C328.743 132.082 320.698 123.949 311.063 124.846Z" fill="#E4611D"/>
<path d="M262.627 187.422L267.318 195.984" stroke="#1F296F" stroke-width="0.75" stroke-miterlimit="10"/>
<path d="M305.554 144.427L324.677 171.01L324.16 175.983L305.554 144.427Z" fill="#1F296F"/>
<path d="M303.214 195.038C303.214 195.038 256.368 203.375 239.868 188.543L196.776 183.024C196.776 183.024 200.716 187.9 212.564 192.093C224.412 196.286 247.299 197.125 260.141 192.941L303.214 195.038Z" fill="white"/>
<path d="M292.418 122.33L294.612 127.157C295.246 128.542 295.548 130.044 295.519 131.565C295.451 135.144 295.002 142.243 292.789 149.83C292.603 150.464 291.872 150.746 291.316 150.395L278.483 142.409C278.503 142.419 287.991 136.938 292.418 122.33Z" fill="white"/>
<path d="M277.664 126.543C277.664 126.543 272.876 138.489 278.493 142.419L268.937 150.551C268.283 151.107 267.279 150.629 267.318 149.771C267.474 145.412 268.166 135.505 271.092 128.601L273.208 124.778L277.664 126.543Z" fill="white"/>
<path d="M347.144 163.462L363.429 188.953L345.769 200.459L326.783 174.004C332.215 167.392 338.368 162.429 347.144 163.462Z" fill="#FFBB8A"/>
<path d="M314.477 124.837C319.109 124.398 323.594 126.592 326.091 130.512L347.135 163.462C338.358 162.429 332.205 167.392 326.773 174.004L305.544 144.427C299.967 136.646 304.94 125.734 314.477 124.837Z" fill="#FF732B"/>
<path d="M232.768 167.646L237.137 177.661" stroke="#1F296F" stroke-width="0.75" stroke-miterlimit="10"/>
<path d="M196.776 110.092C196.776 110.092 179.613 107.957 175.059 105.48C170.495 103.003 171.002 108.425 179.174 111.341C185.678 113.661 187.599 114.676 187.599 114.676" fill="#FFBB8A"/>
<path d="M188.711 116.87C188.711 119.093 190.515 120.897 192.739 120.897C194.962 120.897 196.766 119.093 196.766 116.87C196.766 114.646 194.962 112.842 192.739 112.842C190.515 112.842 188.711 114.637 188.711 116.87Z" fill="#FFBB8A"/>
<path d="M194.328 109.761L183.641 111.731C182.149 112.004 181.583 113.847 182.666 114.919" stroke="#1F296F" stroke-width="0.75" stroke-miterlimit="10"/>
<path d="M182.655 114.919C183.436 115.69 184.489 116.119 185.591 116.119H192.992C192.992 116.119 191.89 120.8 196.776 121.95" stroke="#1F296F" stroke-width="0.75" stroke-miterlimit="10"/>
<path d="M192.749 124.203C192.749 124.203 195.401 123.325 195.109 122.233C194.816 121.131 191.715 120.761 191.715 120.761" stroke="#1F296F" stroke-width="0.75" stroke-miterlimit="10"/>
<path d="M183.377 118.44C183.377 118.44 187.376 120.117 191.442 118.674" stroke="#1F296F" stroke-width="0.75" stroke-miterlimit="10"/>
<path d="M355.111 182.341L285.417 172.327L284.09 188.553L351.327 203.239C357.822 204.653 364.014 199.826 364.209 193.185C364.375 187.773 360.464 183.112 355.111 182.341Z" fill="#FFBB8A"/>
<path d="M195.586 182.146C196.229 185.862 193.167 189.167 189.413 188.807L153.069 185.364L151.236 174.033L190.447 177.427C193.031 177.651 195.137 179.591 195.586 182.146Z" fill="#FFBB8A"/>
<path d="M189.959 186.661C190.993 186.661 191.978 186.203 192.66 185.394C193.343 184.584 193.616 183.56 193.44 182.517C193.167 180.937 191.861 179.728 190.261 179.591L151.548 175.418L152.933 183.97L189.628 186.632C189.735 186.661 189.852 186.661 189.959 186.661Z" fill="white"/>
<path d="M151.236 174.033H117.457L119.29 185.374H153.069L151.236 174.033Z" fill="#D34F65"/>
<path d="M151.538 175.428H117.457L118.841 183.98H152.923L151.538 175.428Z" fill="#B1E3F1"/>
<path d="M189.208 181.435L151.538 177.602H118.032" stroke="#D34F65" stroke-width="0.75" stroke-miterlimit="10"/>
<path d="M189.208 183.833L152.231 180.196H124.585" stroke="#D34F65" stroke-width="0.75" stroke-miterlimit="10"/>
<path d="M118.744 182.01L152.923 182.702L178.93 184.516" stroke="#D34F65" stroke-width="0.75" stroke-miterlimit="10"/>
<path d="M212.475 172.18C213.119 175.896 210.057 179.201 206.303 178.841L169.959 175.398L168.126 164.067L207.336 167.461C209.92 167.685 212.027 169.625 212.475 172.18Z" fill="#66CC66"/>
<path d="M206.859 176.695C207.892 176.695 208.877 176.237 209.56 175.428C210.242 174.618 210.515 173.594 210.34 172.551C210.067 170.971 208.76 169.762 207.161 169.626L168.447 165.452L169.832 174.004L206.527 176.666C206.624 176.695 206.742 176.695 206.859 176.695Z" fill="white"/>
<path d="M168.125 164.067H134.346L136.18 175.408H169.959L168.125 164.067Z" fill="#66CC66"/>
<path d="M168.428 165.462H134.346L135.731 174.014H169.812L168.428 165.462Z" fill="#B1E3F1"/>
<path d="M206.098 171.469L168.428 167.636H134.922" stroke="#7FC92E" stroke-width="0.75" stroke-miterlimit="10"/>
<path d="M206.098 173.858L169.12 170.23H141.475" stroke="#7FC92E" stroke-width="0.75" stroke-miterlimit="10"/>
<path d="M135.634 172.044L169.813 172.736L195.83 174.55" stroke="#7FC92E" stroke-width="0.75" stroke-miterlimit="10"/>
<path d="M116.345 162.419L134.346 164.067L186.468 165.861L150.134 161.561L116.345 162.419Z" fill="#A03C52"/>
<path d="M192.641 159.201C193.284 162.916 190.223 166.222 186.468 165.861L150.124 162.419L148.291 151.088L187.502 154.481C190.086 154.706 192.202 156.636 192.641 159.201Z" fill="#FF6666"/>
<path d="M187.024 163.716C188.058 163.716 189.043 163.258 189.725 162.448C190.408 161.639 190.681 160.615 190.505 159.572C190.232 157.992 188.926 156.783 187.326 156.646L148.613 152.473L149.998 161.025L186.692 163.687C186.79 163.706 186.907 163.716 187.024 163.716Z" fill="white"/>
<path d="M148.291 151.088H114.512L116.345 162.419H150.134L148.291 151.088Z" fill="#FF6666"/>
<path d="M148.593 152.473H114.512L115.897 161.025H149.988L148.593 152.473Z" fill="#B1E3F1"/>
<path d="M186.263 158.489L148.593 154.647H115.087" stroke="#FF6666" stroke-width="0.75" stroke-miterlimit="10"/>
<path d="M186.263 160.878L149.295 157.241H121.64" stroke="#FF6666" stroke-width="0.75" stroke-miterlimit="10"/>
<path d="M115.809 159.065L149.988 159.747L175.995 161.561" stroke="#FF6666" stroke-width="0.75" stroke-miterlimit="10"/>
<path d="M269.795 208.583L-0.00012207 183.024V191.703L269.795 214.268V208.583Z" fill="#EBF2FF"/>
<path d="M258.727 213.341L256.377 235.555L4.66113 224.448C4.66113 224.448 3.34468 191.986 4.66113 192.093C5.98734 192.2 258.727 213.341 258.727 213.341Z" fill="#EBF2FF"/>
<path d="M4.67088 192.093C5.98734 192.2 258.727 213.341 258.727 213.341L258.356 216.823L4.08582 198.948C4.12483 194.921 4.28082 192.064 4.67088 192.093Z" fill="#B1E3F1"/>
<path d="M390.206 208.583L120.411 183.024V191.703L390.206 214.268V208.583Z" fill="white"/>
<path d="M379.148 213.341L376.798 235.555L124.497 229.734C124.497 229.734 123.766 191.986 125.083 192.093C126.399 192.2 379.148 213.341 379.148 213.341Z" fill="white"/>
<path d="M125.083 192.093C126.399 192.2 379.138 213.341 379.138 213.341L378.768 216.823L124.497 198.948C124.536 194.921 124.693 192.064 125.083 192.093Z" fill="#B1E3F1"/>
<path d="M125.083 192.093H4.67092V224.448L124.507 229.734L125.083 192.093Z" fill="#B1E3F1"/>
<path d="M-3.8147e-05 183.024H120.411V191.703H-3.8147e-05V183.024Z" fill="#9DBCFE"/>
<path d="M376.799 235.555V378.015C376.799 378.015 371.923 381.672 371.923 378.015C371.923 374.358 371.923 235.341 371.923 235.341L376.799 235.555Z" fill="#EBF2FF"/>
<path d="M257.977 267.833L267.319 259.788C267.319 259.788 266.548 250.953 267.982 241.767" stroke="#1F296F" stroke-width="0.75" stroke-miterlimit="10"/>
<path d="M268.653 97.8178C260.476 88.2656 261.59 73.8925 271.142 65.7147C280.694 57.537 295.068 58.6512 303.245 68.2035C311.423 77.7557 310.309 92.1288 300.757 100.307C291.204 108.484 276.831 107.37 268.653 97.8178Z" fill="#1F296F"/>
<path d="M291.229 93.1248L292.418 128.201C291.638 134.101 287.904 139.201 282.521 141.736C277.655 144.018 272.116 140.264 272.438 134.9L274.544 100.165C274.544 100.165 291.56 90.5017 291.229 93.1248Z" fill="#FFBB8A"/>
<path d="M285.875 107.352C284.178 114.695 279.254 119.269 273.198 122.331L273.559 116.333C278.211 114.481 283.203 112.257 285.875 107.352Z" fill="#1F296F"/>
<path d="M254.69 81.4815C254.261 87.7517 255.675 88.4539 255.392 94.2072C255.217 97.8641 254.261 98.8197 254.914 104.076C256.211 114.49 268.04 125.929 281.867 113.193C295.695 100.458 299.683 83.0028 288.781 72.0811C281.438 64.7187 255.85 64.5237 254.69 81.4815Z" fill="#FFBB8A"/>
<path d="M267.737 93.3881C267.737 92.608 268.371 91.9741 269.151 91.9741C269.932 91.9741 270.565 92.608 270.565 93.3881C270.565 94.1682 269.932 94.8021 269.151 94.8021C268.371 94.8021 267.737 94.1682 267.737 93.3881Z" fill="#1F296F"/>
<path d="M255.743 91.9644C255.743 91.1843 256.377 90.5504 257.157 90.5504C257.937 90.5504 258.571 91.1843 258.571 91.9644C258.571 92.7445 257.937 93.3783 257.157 93.3783C256.377 93.3881 255.743 92.7445 255.743 91.9644Z" fill="#1F296F"/>
<path d="M282.072 88.7074C282.072 88.7074 283.369 94.1195 282.755 98.7124C282.55 100.234 284.569 100.946 285.368 99.6486C285.992 98.6442 287.416 95.4847 288.001 93.9147C290.78 86.3573 283.906 82.0374 283.906 82.0374L282.072 88.7074Z" fill="#6F0087"/>
<path d="M258.308 65.4696C267.494 54.1383 292.419 61.1789 292.419 61.1789L301.683 72.91L304.686 80.2528C304.686 80.2528 295.344 96.9279 292.887 97.474C290.429 98.0103 286.919 91.3793 286.919 91.3793C288.157 96.8304 286.343 109.156 286.343 109.156L279.985 107.372C282.306 98.4492 282.063 88.7171 282.063 88.7171C281.634 88.5124 281.195 88.3173 280.766 88.1321C281.39 84.68 281.829 81.228 280.688 77.7857C282.765 81.9399 282.248 86.6108 282.248 91.2818C282.248 86.6108 282.765 81.9399 280.688 77.7857C281.838 81.2377 281.39 84.6898 280.766 88.1321C276.163 86.1233 271.589 84.9531 267.513 84.29C267.757 82.3787 268.03 80.4966 268.752 78.8194C267.504 80.4869 266.597 82.1641 266.285 84.0949C263.7 83.7244 261.341 83.5488 259.342 83.4903C259.478 79.2387 261.321 75.6599 263.564 72.0713C260.726 75.4161 258.415 79.2777 257.108 83.4611C254.281 83.4806 252.574 83.6951 252.574 83.6951C252.574 83.6951 250.419 75.2211 258.308 65.4696Z" fill="#1F296F"/>
<path d="M287.396 95.7383C287.396 95.7383 288.479 87.5372 294.32 88.2588C300.161 88.9805 298.659 99.9021 290.234 98.7417" fill="#FFBB8A"/>
<path d="M266.743 86.0062C268.215 85.6552 270.829 85.7137 273.062 87.781C276.104 90.5992 268.917 87.9468 267.162 88.6977C265.407 89.4485 264.939 86.4353 266.743 86.0062Z" fill="#1F296F"/>
<path d="M259.38 85.587C258.522 84.7288 256.718 85.0409 256.153 85.4992C254.095 87.1862 257.459 86.8351 258.659 87.7713C259.849 88.7172 260.151 86.3671 259.38 85.587Z" fill="#1F296F"/>
<path d="M272.896 105.08C270.677 105.08 268.878 103.281 268.878 101.063C268.878 98.8437 270.677 97.0449 272.896 97.0449C275.115 97.0449 276.914 98.8437 276.914 101.063C276.914 103.281 275.115 105.08 272.896 105.08Z" fill="#FF6666"/>
<path d="M265.963 105.441C265.963 105.441 261.604 105.5 260.492 108.562C260.492 108.562 261.789 110.385 264.286 109.42C266.772 108.445 265.963 105.441 265.963 105.441Z" fill="#FF6666"/>
<path d="M257.479 103.383C257.479 103.383 260.989 105.441 265.387 103.383C265.387 103.383 267.942 109.361 263.164 109.615C259.224 109.819 258.815 104.3 258.815 104.3" stroke="#1F296F" stroke-width="0.75" stroke-miterlimit="10" stroke-linecap="round" stroke-linejoin="round"/>
<path d="M260.317 100.321C260.317 100.321 257.157 99.1025 257.479 97.9323C257.576 97.6008 257.898 97.1132 258.327 96.5866C259.995 94.5193 260.707 91.8474 260.317 89.2242" fill="#FFBB8A"/>
<path d="M260.317 100.321C260.317 100.321 257.157 99.1025 257.479 97.9323C257.576 97.6008 257.898 97.1132 258.327 96.5866C259.995 94.5193 260.707 91.8474 260.317 89.2242" stroke="#1F296F" stroke-width="0.75" stroke-miterlimit="10" stroke-linecap="round" stroke-linejoin="round"/>
<path d="M263.447 93.9927C263.447 97.4447 266.246 100.243 269.698 100.243C273.15 100.243 275.948 97.4447 275.948 93.9927C275.948 90.5406 273.15 87.7419 269.698 87.7419C266.246 87.7419 263.447 90.5406 263.447 93.9927Z" stroke="#1F296F" stroke-width="0.75" stroke-miterlimit="10" stroke-linecap="round" stroke-linejoin="round"/>
<path d="M249.892 92.6763C249.892 96.1283 252.116 98.927 254.846 98.927C257.576 98.927 259.8 96.1283 259.8 92.6763C259.8 89.2242 257.576 86.4255 254.846 86.4255C252.116 86.4255 249.892 89.2242 249.892 92.6763Z" stroke="#1F296F" stroke-width="0.75" stroke-miterlimit="10" stroke-linecap="round" stroke-linejoin="round"/>
<path d="M264.12 91.1746C264.12 91.1746 263.125 90.5895 261.77 90.5408" stroke="#1F296F" stroke-width="0.75" stroke-miterlimit="10" stroke-linecap="round" stroke-linejoin="round"/>
<path d="M249.697 84.0755C249.6 78.4879 251.482 72.871 254.953 68.4828C258.415 64.0946 263.437 61.4422 268.898 60.2428" stroke="#1F296F" stroke-width="0.75" stroke-miterlimit="10" stroke-linecap="round" stroke-linejoin="round"/>
<path d="M243.418 374.534C240.755 378.961 234.885 376.162 229.444 376.338C230.136 375.431 230.848 374.495 231.579 373.49L237.167 355.255L246.168 352.154C249.093 360.257 247.923 368.224 243.418 374.534Z" fill="white"/>
<path d="M231.579 373.49L237.166 355.255" stroke="#9DBCFE" stroke-width="0.75" stroke-miterlimit="10"/>
<path d="M229.443 376.338C234.885 376.162 240.765 378.961 243.417 374.534C247.922 368.224 249.093 360.257 246.167 352.154L249.141 351.13L252.974 361.866L248.225 379.985C246.869 385.143 242.208 388.742 236.874 388.742H220.774C219.906 388.742 219.477 387.698 220.092 387.084C222.022 385.172 225.396 381.603 229.443 376.338Z" fill="#1F296F"/>
<path d="M159.652 155.514L77.2709 151.321C74.7062 151.195 72.8144 149.137 72.8144 146.475V81.7151C72.8144 79.0432 74.716 76.9174 77.2709 76.6833L159.652 69.1162C162.226 68.8821 164.527 71.7491 164.527 75.1426V149.303C164.527 152.677 162.226 155.641 159.652 155.514Z" fill="white"/>
<path d="M156.014 155.778L72.6097 151.634C70.0158 151.507 68.0849 149.44 68.0849 146.758V81.5399C68.0849 78.8583 70.0158 76.713 72.6097 76.4789L156.014 68.9117C158.618 68.6777 160.948 71.5642 160.948 74.9674V149.518C160.939 152.931 158.608 155.915 156.014 155.778Z" fill="#9DBCFE"/>
<path d="M163.377 392.194C163.377 392.194 166.195 379.409 152.25 377.391C152.25 377.391 151.051 388.742 163.377 392.194Z" fill="#1F296F"/>
<path d="M330.186 178.743L347.69 181.278" stroke="#1F296F" stroke-width="0.75" stroke-miterlimit="10"/>
<path d="M376.799 235.555V412.672H372.576L367.135 235.341L376.799 235.555Z" fill="white"/>
<path d="M222.413 262.109L216.513 256.16" stroke="#1F296F" stroke-width="0.75" stroke-miterlimit="10"/>
<path d="M343.604 157.914C343.604 157.914 331.405 156.822 323.146 168.923" stroke="white" stroke-width="0.75" stroke-miterlimit="10"/>
<path d="M304.12 79.5799C297.657 79.5799 292.418 74.3408 292.418 67.8781C292.418 61.4153 297.657 56.1763 304.12 56.1763C310.583 56.1763 315.822 61.4153 315.822 67.8781C315.822 74.3408 310.583 79.5799 304.12 79.5799Z" fill="#1F296F"/>
<path d="M230.545 291.461C230.545 291.461 238.736 286.868 238.61 296.434C238.493 304.801 229.443 310.232 225.864 311.285C219.302 313.216 215.001 308.34 217.01 304.547" stroke="#1F296F" stroke-width="0.75" stroke-miterlimit="10"/>
<path d="M190.115 244.01C186.897 249.578 187.638 256.024 191.763 258.403C195.888 260.782 201.836 258.198 205.054 252.63C208.272 247.062 207.531 240.616 203.406 238.237C199.272 235.858 193.323 238.442 190.115 244.01Z" stroke="#1F296F" stroke-width="0.75" stroke-miterlimit="10"/>
<path d="M331.649 83.988L335.053 80.497C335.53 80.0094 336.154 79.7363 336.808 79.7363L363.527 79.7461C365.214 79.7461 366.599 78.3711 366.599 76.6646V51.769C366.599 50.0723 365.214 48.8143 363.527 48.9704L333.307 51.7008C331.922 51.8275 330.801 53.1635 330.801 54.6847L328.909 83.9197C328.909 84.4171 331.327 84.3196 331.649 83.988Z" fill="#1F296F"/>
<path d="M329.641 83.9876L333.044 80.4965C333.522 80.009 334.146 79.7359 334.809 79.7359L361.547 79.7457C363.234 79.7457 364.619 78.3707 364.619 76.6642V51.7588C364.619 50.0621 363.234 48.8041 361.547 48.9504L331.308 51.6808C329.914 51.8076 328.802 53.1436 328.802 54.6648V83.5585C328.792 84.0558 329.319 84.3094 329.641 83.9876Z" fill="#FF6666"/>
<path d="M334.945 61.5298L358.222 60.1841V55.4937L334.945 57.1709V61.5298Z" fill="white"/>
<path d="M358.222 66.9127L334.945 67.7904" stroke="#1F296F" stroke-width="0.75" stroke-miterlimit="10"/>
<path d="M358.222 71.1156L334.945 71.7007" stroke="#1F296F" stroke-width="0.75" stroke-miterlimit="10"/>
<path d="M112.055 113.379V153.594L101.328 152.824L112.055 113.379Z" fill="#789FD6"/>
<path d="M109.441 110.638H101.045C99.7578 110.638 98.6656 111.575 98.4706 112.842L87.9975 180.011C87.7537 181.59 88.9727 183.024 90.5719 183.024H120.285C120.363 183.024 120.451 183.024 120.529 183.034L156.073 186.398L123.473 178.402C121.435 177.904 119.349 177.651 117.252 177.651H112.932C110.709 177.651 108.934 175.788 109.041 173.565L112.045 113.369C112.123 111.887 110.943 110.638 109.441 110.638Z" fill="#9DBCFE"/>
<path d="M112.055 113.379C112.133 111.887 110.943 110.638 109.451 110.638H101.055C99.7681 110.638 98.6759 111.575 98.4809 112.842L88.0078 180.011C87.764 181.59 88.9829 183.024 90.5822 183.024" stroke="#789FD6" stroke-width="0.75" stroke-miterlimit="10" stroke-linecap="round" stroke-linejoin="round"/>
<path d="M124.576 225.365L124.098 412.672H129.461L134.893 224.497L124.576 225.365Z" fill="white"/>
<path d="M267.718 155.885L284.188 161.103L289.327 162.731C289.99 162.936 290.692 162.585 290.926 161.931C290.975 161.785 291.004 161.639 291.004 161.502C291.004 160.956 290.653 160.449 290.107 160.274L283.876 158.275L272.925 154.754L268.82 155.456C268.42 155.525 268.049 155.671 267.718 155.885Z" fill="#1F296F"/>
<path d="M285.378 171.976L283.642 156.139C283.457 154.423 281.857 153.223 280.161 153.516L268.82 155.456C267.971 155.603 267.22 156.11 266.772 156.851L263.798 161.727C263.417 162.341 263.281 163.082 263.408 163.794L263.69 165.432C263.905 166.661 264.851 167.636 266.079 167.87L267.854 168.211C269.054 168.436 269.99 169.362 270.224 170.552C271.141 175.154 274.359 186.427 284.1 188.563C284.1 188.563 288.8 181.503 285.553 172.678C285.465 172.444 285.407 172.21 285.378 171.976Z" fill="#FFBB8A"/>
<path d="M281.048 153.496L273.803 150.727C272.223 150.122 270.468 150.122 268.888 150.737L266.616 151.614C265.68 151.975 265.358 153.175 266.041 153.916C266.401 154.306 266.84 154.618 267.328 154.627C267.679 154.627 269.736 153.867 270.575 154.052C272.925 154.588 275.022 156.48 275.022 156.48" fill="#FFBB8A"/>
<path d="M265.163 152.268L272.925 154.754L268.82 155.456C268.42 155.525 268.049 155.671 267.718 155.885L264.149 154.754C264.851 154.013 265.251 153.136 265.163 152.268Z" fill="#1F296F"/>
<path d="M262.852 154.159L260.989 152.16C260.921 152.092 260.97 151.975 261.067 151.975H264.061C264.197 151.975 264.334 151.995 264.461 152.034L265.163 152.258C265.251 153.136 264.841 154.013 264.149 154.745L263.408 154.51C263.193 154.452 263.008 154.325 262.852 154.159Z" fill="#EBF2FF"/>
<path d="M302.433 243.571C302.433 243.571 311.522 252.923 326.783 246.652" stroke="#1F296F" stroke-width="0.75" stroke-miterlimit="10"/>
<path d="M62.8386 161.132C62.8386 161.132 69.8889 159.406 71.4589 155.593C73.0289 151.78 72.395 162.799 67.1487 163.95" fill="#66CC66"/>
<path d="M61.9025 160.556C61.9025 160.556 66.9733 155.963 66.8173 152.667C66.6612 149.381 71.3127 157.056 66.8173 161.912" fill="#66CC66"/>
<path d="M63.3164 160.04C63.3164 160.04 67.7533 152.463 61.4344 147.87V162.702" fill="#66CC66"/>
<path d="M60.0106 161.132C60.0106 161.132 52.9603 159.406 51.3903 155.593C49.8203 151.78 50.4542 162.799 55.7005 163.95" fill="#66CC66"/>
<path d="M60.9468 160.556C60.9468 160.556 55.876 155.963 56.032 152.667C56.1881 149.381 51.5366 157.056 56.032 161.912" fill="#66CC66"/>
<path d="M59.5425 160.04C59.5425 160.04 55.1056 152.463 61.4246 147.87V162.702" fill="#66CC66"/>
<path d="M75.652 163.97L72.6096 180.498C72.3365 181.961 71.059 183.034 69.567 183.034H54.6083C53.1358 183.034 51.8681 182 51.5756 180.557L48.2308 164.028C47.8407 162.117 49.3034 160.323 51.2635 160.323H72.6096C74.5403 160.313 75.9933 162.068 75.652 163.97Z" fill="white"/>
<path d="M232.769 356.776C232.769 356.776 242.325 362.208 249.142 351.13L238.61 344.021L232.769 356.776Z" fill="#0C50AA"/>
<path d="M278.503 142.419C277.703 143.823 277.762 145.52 278.561 146.924C279.146 147.957 279.605 149.459 279.371 151.546" stroke="#1F296F" stroke-width="0.75" stroke-miterlimit="10" stroke-linecap="round" stroke-linejoin="round"/>
<path d="M212.135 88.366L176.522 88.9901C175.157 89.0096 174.084 87.9857 174.084 86.6595V16.5657C174.084 15.2883 175.089 14.2156 176.405 14.0889L212.027 10.8416C213.441 10.7148 214.65 11.8168 214.65 13.2307V85.8112C214.641 87.1764 213.5 88.3368 212.135 88.366Z" fill="#1F296F"/>
<path d="M206.898 29.2426L182.041 31.2026V26.6194L206.898 24.5228V29.2426Z" fill="#FF6666"/>
<path d="M182.041 38.4383L206.479 36.722" stroke="white" stroke-width="0.75" stroke-miterlimit="10"/>
<path d="M182.041 42.5633L206.479 40.9738" stroke="white" stroke-width="0.75" stroke-miterlimit="10"/>
<path d="M182.041 47.0489L206.479 45.5959" stroke="white" stroke-width="0.75" stroke-miterlimit="10"/>
<path d="M186.478 58.4386C185.61 58.4776 184.899 57.8145 184.899 56.9661V55.8642C184.899 55.0256 185.581 54.3235 186.439 54.2747C187.317 54.226 188.029 54.8988 188.029 55.7472V56.8491C188.029 57.6877 187.336 58.3996 186.478 58.4386Z" fill="#FF6666"/>
<path d="M194.211 58.0876H194.114C193.256 58.1266 192.553 57.4635 192.553 56.6249V55.4645C192.553 54.6356 193.236 53.9335 194.075 53.8945H194.172C195.04 53.8555 195.742 54.5088 195.742 55.3572V56.5176C195.742 57.3465 195.06 58.0486 194.211 58.0876Z" fill="white"/>
<path d="M202.081 57.7366L201.886 57.7464C201.037 57.7854 200.345 57.132 200.345 56.2836V55.0647C200.345 54.2358 201.018 53.5435 201.847 53.5044L202.042 53.4947C202.9 53.4557 203.592 54.109 203.592 54.9574V56.1764C203.592 56.9955 202.919 57.6976 202.081 57.7366Z" fill="#FF6666"/>
<path d="M186.449 67.137C185.591 67.1662 184.899 66.5129 184.899 65.6742V64.5723C184.899 63.7239 185.601 63.0121 186.469 62.9731C187.336 62.9341 188.029 63.5972 188.029 64.4358V65.5377C188.029 66.3861 187.317 67.1077 186.449 67.137Z" fill="white"/>
<path d="M194.182 66.8737H194.084C193.236 66.9029 192.553 66.2496 192.553 65.4207V64.2603C192.553 63.4216 193.246 62.7098 194.104 62.6708H194.201C195.06 62.6415 195.742 63.2851 195.742 64.1335V65.2939C195.742 66.1325 195.04 66.8444 194.182 66.8737Z" fill="#FF6666"/>
<path d="M202.052 66.6008L201.857 66.6105C201.018 66.6398 200.345 65.9962 200.345 65.1575V63.9386C200.345 63.1 201.028 62.3979 201.876 62.3588L202.071 62.3491C202.91 62.3198 203.592 62.9635 203.592 63.8021V65.021C203.592 65.8596 202.9 66.5715 202.052 66.6008Z" fill="white"/>
<path d="M355.813 205.326V183.482C355.813 182.234 354.799 181.22 353.55 181.22H338.66C337.412 181.22 336.397 182.234 336.397 183.482V203.492L355.813 205.326Z" fill="white"/>
<path d="M340.425 186.417H333.999C331.717 186.417 329.981 188.485 330.391 190.737L331.609 197.534C332 199.718 333.901 201.308 336.124 201.308H340.435" stroke="white" stroke-width="4" stroke-miterlimit="10"/>
<path d="M124.507 229.734L125.238 412.672H121.036L116.345 213.819" fill="#B1E3F1"/>
<path d="M367.135 235.341L361.235 235.156L368.588 412.672H372.576L367.135 235.341Z" fill="#B1E3F1"/>
</svg>
