<svg width="72" height="72" viewBox="0 0 72 72" fill="none" xmlns="http://www.w3.org/2000/svg">
<rect width="72" height="72" rx="11.7865" fill="#1E7BF5"/>
<path fill-rule="evenodd" clip-rule="evenodd" d="M41.1823 47.8824L43.7142 51.8504L48.857 43.7948V20.9933H38.5713V43.0417L40.4583 41.2828L42.6886 43.1989L44.7793 41.2828L46.7079 42.9192L46.876 42.9983L43.7023 47.8824H41.1823ZM27.5123 51.8504H34.7143V46.8664H29.5716V44.9812H34.7143V41.8405H31.6623V39.9563H34.7143V37.4434H29.5716V35.5582H34.7143V33.0462H31.6623V31.161H34.7143V28.0204H29.5716V26.1362H34.7143V20.9933H27.5123C25.103 20.9933 23.1428 22.7608 23.1428 24.9324V47.9113C23.1428 50.0829 25.103 51.8504 27.5123 51.8504Z" fill="white"/>
</svg>
